<mxfile host="app.diagrams.net" modified="2023-04-02T17:18:30.442Z" agent="Mozilla/5.0 (Windows NT 10.0; Win64; x64) AppleWebKit/537.36 (KHTML, like Gecko) Chrome/111.0.0.0 Safari/537.36 Edg/111.0.1661.62" etag="mWhBNOFYdyNgO3aMccMW" version="21.1.2" type="device">
  <diagram name="Страница 1" id="nH_pj2QVpnIHduwzrGQI">
    <mxGraphModel dx="792" dy="1138" grid="1" gridSize="10" guides="1" tooltips="1" connect="1" arrows="1" fold="1" page="1" pageScale="1" pageWidth="827" pageHeight="1169" math="0" shadow="0">
      <root>
        <mxCell id="0" />
        <mxCell id="1" parent="0" />
        <mxCell id="fuAiaQp2R9krzM0FWQ7p-3" style="edgeStyle=orthogonalEdgeStyle;rounded=0;orthogonalLoop=1;jettySize=auto;html=1;" edge="1" parent="1" source="fuAiaQp2R9krzM0FWQ7p-1" target="fuAiaQp2R9krzM0FWQ7p-2">
          <mxGeometry relative="1" as="geometry" />
        </mxCell>
        <mxCell id="fuAiaQp2R9krzM0FWQ7p-1" value="Начало&lt;br&gt;deleteFirstTrain" style="ellipse;whiteSpace=wrap;html=1;" vertex="1" parent="1">
          <mxGeometry x="354" y="10" width="120" height="80" as="geometry" />
        </mxCell>
        <mxCell id="fuAiaQp2R9krzM0FWQ7p-5" style="edgeStyle=orthogonalEdgeStyle;rounded=0;orthogonalLoop=1;jettySize=auto;html=1;entryX=0.5;entryY=0;entryDx=0;entryDy=0;" edge="1" parent="1" source="fuAiaQp2R9krzM0FWQ7p-2" target="fuAiaQp2R9krzM0FWQ7p-4">
          <mxGeometry relative="1" as="geometry" />
        </mxCell>
        <mxCell id="fuAiaQp2R9krzM0FWQ7p-10" value="TRUE" style="edgeStyle=orthogonalEdgeStyle;rounded=0;orthogonalLoop=1;jettySize=auto;html=1;" edge="1" parent="1" source="fuAiaQp2R9krzM0FWQ7p-2">
          <mxGeometry relative="1" as="geometry">
            <mxPoint x="414" y="380" as="targetPoint" />
            <Array as="points">
              <mxPoint x="310" y="150" />
              <mxPoint x="310" y="380" />
            </Array>
          </mxGeometry>
        </mxCell>
        <mxCell id="fuAiaQp2R9krzM0FWQ7p-2" value="!trainList" style="rhombus;whiteSpace=wrap;html=1;" vertex="1" parent="1">
          <mxGeometry x="374" y="110" width="80" height="80" as="geometry" />
        </mxCell>
        <mxCell id="fuAiaQp2R9krzM0FWQ7p-7" style="edgeStyle=orthogonalEdgeStyle;rounded=0;orthogonalLoop=1;jettySize=auto;html=1;" edge="1" parent="1" source="fuAiaQp2R9krzM0FWQ7p-4" target="fuAiaQp2R9krzM0FWQ7p-6">
          <mxGeometry relative="1" as="geometry" />
        </mxCell>
        <mxCell id="fuAiaQp2R9krzM0FWQ7p-4" value="&lt;div style=&quot;font-size: 14px; line-height: 19px;&quot;&gt;&lt;span style=&quot;background-color: rgb(255, 255, 255);&quot;&gt;newFirst = trainList-&amp;gt;next&lt;/span&gt;&lt;/div&gt;" style="rounded=0;whiteSpace=wrap;html=1;" vertex="1" parent="1">
          <mxGeometry x="331" y="210" width="166" height="60" as="geometry" />
        </mxCell>
        <mxCell id="fuAiaQp2R9krzM0FWQ7p-9" style="edgeStyle=orthogonalEdgeStyle;rounded=0;orthogonalLoop=1;jettySize=auto;html=1;entryX=0.5;entryY=0;entryDx=0;entryDy=0;" edge="1" parent="1" source="fuAiaQp2R9krzM0FWQ7p-6" target="fuAiaQp2R9krzM0FWQ7p-8">
          <mxGeometry relative="1" as="geometry" />
        </mxCell>
        <mxCell id="fuAiaQp2R9krzM0FWQ7p-6" value="free(trainList)" style="rounded=0;whiteSpace=wrap;html=1;" vertex="1" parent="1">
          <mxGeometry x="354" y="290" width="120" height="60" as="geometry" />
        </mxCell>
        <mxCell id="fuAiaQp2R9krzM0FWQ7p-8" value="Конец" style="ellipse;whiteSpace=wrap;html=1;" vertex="1" parent="1">
          <mxGeometry x="354" y="400" width="120" height="80" as="geometry" />
        </mxCell>
      </root>
    </mxGraphModel>
  </diagram>
</mxfile>
